<svg xmlns="http://www.w3.org/2000/svg" viewBox="0 0 48 48" fill="none" stroke="currentColor" stroke-width="2.5" stroke-linecap="round" stroke-linejoin="round" role="img" aria-label="All parts: ANTI: parts grid mass"><path d="M5.8,13 a7.2,7.2 0 1 0 14.4,0 a7.2,7.2 0 1 0 -14.4,0 M9.4,13 a3.6,3.6 0 1 0 7.2,0 a3.6,3.6 0 1 0 -7.2,0" fill="currentColor" fill-rule="evenodd" stroke="none"/><circle cx="13" cy="13" r="1.6" fill="currentColor" stroke="none"/><path d="M28.5,19.5 L35,8 L41.5,19.5 Z M32.6,16.9 L35,12.7 L37.4,16.9 Z" fill="currentColor" fill-rule="evenodd" stroke="none"/><path d="M8,27.2 Q13,24 18,27.2 L18,30.4 Q13,27.2 8,30.4 Z" fill="currentColor" stroke="none"/><rect x="7.6" y="31.8" width="3.2" height="8.2" rx="1.6" fill="currentColor" stroke="none"/><rect x="15.2" y="31.8" width="3.2" height="8.2" rx="1.6" fill="currentColor" stroke="none"/><path d="M28.6,34 a6.4,6.4 0 1 0 12.8,0 a6.4,6.4 0 1 0 -12.8,0 M32.6,34 a2.4,2.4 0 1 0 4.8,0 a2.4,2.4 0 1 0 -4.8,0" fill="var(--icon-accent, currentColor)" fill-rule="evenodd" stroke="none"/></svg>
