<svg xmlns="http://www.w3.org/2000/svg" viewBox="0 0 48 48" fill="none" stroke="currentColor" stroke-width="2.5" stroke-linecap="round" stroke-linejoin="round" role="img" aria-label="All parts: The whole bike, refined"><circle cx="11" cy="33" r="8.5"/><circle cx="37" cy="33" r="8.5"/><path class="fd" d="M11.68,31.12 L13.91,25.01"/><path class="fd" d="M12.88,33.68 L18.99,35.91"/><path class="fd" d="M10.32,34.88 L8.09,40.99"/><path class="fd" d="M9.12,32.32 L3.01,30.09"/><path class="fd" d="M38.81,32.15 L44.7,29.41"/><path class="fd" d="M37.85,34.81 L40.59,40.7"/><path class="fd" d="M35.19,33.85 L29.3,36.59"/><path class="fd" d="M36.15,31.19 L33.41,25.3"/><path d="M18,16 L33.5,14.5"/><path d="M18,16 L22,33"/><path d="M33.5,14.5 L22,33"/><path d="M22,33 L11,33"/><path d="M18,16 L11,33"/><path d="M33.5,14.5 L37,33"/><path class="fd" d="M17.5,15.5 L17,12.5 M14.5,12 L20,12"/><path class="fd" d="M34,14 L33,10.5 M31,11 L36,10"/><circle cx="22" cy="33" r="2.4" stroke="var(--icon-accent, currentColor)"/></svg>
