<svg xmlns="http://www.w3.org/2000/svg" viewBox="0 0 48 48" fill="none" stroke="currentColor" stroke-width="2.5" stroke-linecap="round" stroke-linejoin="round" role="img" aria-label="Bottom Bracket: ANTI: cup disc"><path d="M9.5,24 a14.5,14.5 0 1 0 29,0 a14.5,14.5 0 1 0 -29,0 M16,24 a8,8 0 1 0 16,0 a8,8 0 1 0 -16,0 M26.89,13.65 a1.4,1.4 0 1 0 2.8,0 a1.4,1.4 0 1 0 -2.8,0 M32.95,19.71 a1.4,1.4 0 1 0 2.8,0 a1.4,1.4 0 1 0 -2.8,0 M32.95,28.29 a1.4,1.4 0 1 0 2.8,0 a1.4,1.4 0 1 0 -2.8,0 M26.89,34.35 a1.4,1.4 0 1 0 2.8,0 a1.4,1.4 0 1 0 -2.8,0 M18.31,34.35 a1.4,1.4 0 1 0 2.8,0 a1.4,1.4 0 1 0 -2.8,0 M12.25,28.29 a1.4,1.4 0 1 0 2.8,0 a1.4,1.4 0 1 0 -2.8,0 M12.25,19.71 a1.4,1.4 0 1 0 2.8,0 a1.4,1.4 0 1 0 -2.8,0 M18.31,13.65 a1.4,1.4 0 1 0 2.8,0 a1.4,1.4 0 1 0 -2.8,0" fill="currentColor" fill-rule="evenodd" stroke="none"/><circle cx="24" cy="24" r="4.6" fill="var(--icon-accent, currentColor)" stroke="none"/></svg>
