<svg xmlns="http://www.w3.org/2000/svg" viewBox="0 0 48 48" fill="none" stroke="currentColor" stroke-width="2.5" stroke-linecap="round" stroke-linejoin="round" role="img" aria-label="Brakes: ANTI: rotor disc"><path d="M6.5,26.5 a15,15 0 1 0 30,0 a15,15 0 1 0 -30,0 M17.3,26.5 a4.2,4.2 0 1 0 8.4,0 a4.2,4.2 0 1 0 -8.4,0 M22.18,17.23 a1.8,1.8 0 1 0 3.6,0 a1.8,1.8 0 1 0 -3.6,0 M28.97,24.02 a1.8,1.8 0 1 0 3.6,0 a1.8,1.8 0 1 0 -3.6,0 M26.49,33.29 a1.8,1.8 0 1 0 3.6,0 a1.8,1.8 0 1 0 -3.6,0 M17.22,35.77 a1.8,1.8 0 1 0 3.6,0 a1.8,1.8 0 1 0 -3.6,0 M10.43,28.98 a1.8,1.8 0 1 0 3.6,0 a1.8,1.8 0 1 0 -3.6,0 M12.91,19.71 a1.8,1.8 0 1 0 3.6,0 a1.8,1.8 0 1 0 -3.6,0" fill="currentColor" fill-rule="evenodd" stroke="none"/><rect x="25.4" y="11.4" width="14" height="9.2" rx="3" transform="rotate(45 32.4 16)" fill="var(--icon-accent, currentColor)" stroke="none"/></svg>
