<svg xmlns="http://www.w3.org/2000/svg" viewBox="0 0 48 48" fill="none" stroke="currentColor" stroke-width="2.5" stroke-linecap="round" stroke-linejoin="round" role="img" aria-label="Enduro: ANTI: enduro mass"><g transform="rotate(12 24 25)"><path d="M6.4,32.5 a6.6,6.6 0 1 0 13.2,0 a6.6,6.6 0 1 0 -13.2,0 M9.8,32.5 a3.2,3.2 0 1 0 6.4,0 a3.2,3.2 0 1 0 -6.4,0" fill="currentColor" fill-rule="evenodd" stroke="none"/><path d="M28.4,32.5 a6.6,6.6 0 1 0 13.2,0 a6.6,6.6 0 1 0 -13.2,0 M31.8,32.5 a3.2,3.2 0 1 0 6.4,0 a3.2,3.2 0 1 0 -6.4,0" fill="currentColor" fill-rule="evenodd" stroke="none"/><path d="M13,32.5 L20.2,21.3 L26.2,21.3 L23.8,32.5 Z M17.6,29.7 L21.4,23.9 L23.4,23.9 L22.2,29.7 Z" fill="currentColor" fill-rule="evenodd" stroke="none"/><path d="M31.6,18.8 L35.8,32.2 L33.2,32.9 L29.6,19.4 Z" fill="currentColor" stroke="none"/><path d="M19.2,21.5 L18,15.9 C20.4,11.5 24,9.2 27.2,8.7 L28.8,11.5 C25.6,12.4 22.8,14.8 21.6,18 L22.4,21.5 Z" fill="currentColor" stroke="none"/><circle cx="30" cy="7.6" r="3" fill="currentColor" stroke="none"/><path d="M27.6,10.4 L32.4,17.8 L30.2,19.3 L25.6,12.2 Z" fill="currentColor" stroke="none"/></g><path d="M2,41.2 Q13,37.6 24,41.6 T46,44.4 L46,46.6 Q35,44.8 24,43.8 Q13,42.8 2,43.6 Z" fill="var(--icon-accent, currentColor)" stroke="none"/></svg>
