<svg xmlns="http://www.w3.org/2000/svg" viewBox="0 0 48 48" fill="none" stroke="currentColor" stroke-width="2.5" stroke-linecap="round" stroke-linejoin="round" role="img" aria-label="Drivetrain: Crank + chainring"><circle cx="18.5" cy="28.5" r="12.2" stroke="var(--icon-accent, currentColor)"/><path class="fd" d="M18.5,15.9 L18.5,14"/><path class="fd" d="M23.32,16.86 L24.05,15.1"/><path class="fd" d="M27.41,19.59 L28.75,18.25"/><path class="fd" d="M30.14,23.68 L31.9,22.95"/><path class="fd" d="M31.1,28.5 L33,28.5"/><path class="fd" d="M30.14,33.32 L31.9,34.05"/><path class="fd" d="M27.41,37.41 L28.75,38.75"/><path class="fd" d="M23.32,40.14 L24.05,41.9"/><path class="fd" d="M18.5,41.1 L18.5,43"/><path class="fd" d="M13.68,40.14 L12.95,41.9"/><path class="fd" d="M9.59,37.41 L8.25,38.75"/><path class="fd" d="M6.86,33.32 L5.1,34.05"/><path class="fd" d="M5.9,28.5 L4,28.5"/><path class="fd" d="M6.86,23.68 L5.1,22.95"/><path class="fd" d="M9.59,19.59 L8.25,18.25"/><path class="fd" d="M13.68,16.86 L12.95,15.1"/><path class="fd" d="M22.04,24.96 L27.13,19.87"/><path class="fd" d="M22.04,32.04 L27.13,37.13"/><path class="fd" d="M14.96,32.04 L9.87,37.13"/><path class="fd" d="M14.96,24.96 L9.87,19.87"/><circle class="fd" cx="18.5" cy="28.5" r="5"/><rect x="15.05" y="16.8" width="26.9" height="5.4" rx="2.7" transform="rotate(-42 28.5 19.5)"/><circle cx="18.5" cy="28.5" r="1.5" fill="currentColor" stroke="none"/><circle cx="38.3" cy="10.8" r="1.6" fill="currentColor" stroke="none"/></svg>
