<svg xmlns="http://www.w3.org/2000/svg" viewBox="0 0 48 48" fill="none" stroke="currentColor" stroke-width="2.5" stroke-linecap="round" stroke-linejoin="round" role="img" aria-label="Drivetrain: Cassette + derailleur"><circle cx="16.5" cy="13.5" r="10.8"/><path class="fd" d="M16.5,2.7 L16.5,1"/><path class="fd" d="M21.19,3.77 L21.92,2.24"/><path class="fd" d="M24.94,6.77 L26.27,5.71"/><path class="fd" d="M27.03,11.1 L28.69,10.72"/><path class="fd" d="M27.03,15.9 L28.69,16.28"/><path class="fd" d="M24.94,20.23 L26.27,21.29"/><path class="fd" d="M21.19,23.23 L21.92,24.76"/><path class="fd" d="M16.5,24.3 L16.5,26"/><path class="fd" d="M11.81,23.23 L11.08,24.76"/><path class="fd" d="M8.06,20.23 L6.73,21.29"/><path class="fd" d="M5.97,15.9 L4.31,16.28"/><path class="fd" d="M5.97,11.1 L4.31,10.72"/><path class="fd" d="M8.06,6.77 L6.73,5.71"/><path class="fd" d="M11.81,3.77 L11.08,2.24"/><circle class="fd" cx="16.5" cy="13.5" r="7"/><circle cx="16.5" cy="13.5" r="3.6"/><path d="M21,21.5 L25.6,24.2"/><circle class="fd" cx="21" cy="21.5" r="1.2" fill="currentColor" stroke="none"/><path d="M24.09,29.47 L32.7,44.34"/><path d="M29.8,26.16 L38.41,41.03"/><circle cx="28.5" cy="30.5" r="2.6" stroke="var(--icon-accent, currentColor)"/><circle cx="34" cy="40" r="2.6" stroke="var(--icon-accent, currentColor)"/></svg>
