<svg xmlns="http://www.w3.org/2000/svg" viewBox="0 0 48 48" fill="none" stroke="currentColor" stroke-width="2.5" stroke-linecap="round" stroke-linejoin="round" role="img" aria-label="Fork: ANTI: fork mass"><path d="M21.6,3.5 L26.4,3.5 L26.9,9.6 L35.5,12.4 L35.5,17 L34,17 L34,41.6 Q34,43.8 31.8,43.8 L30.2,43.8 Q28,43.8 28,41.6 L28,17.6 L20,17.6 L20,41.6 Q20,43.8 17.8,43.8 L16.2,43.8 Q14,43.8 14,41.6 L14,17 L12.5,17 L12.5,12.4 L21.1,9.6 Z M15.8,13.9 L32.2,13.9 L32.2,15.5 L15.8,15.5 Z" fill="currentColor" fill-rule="evenodd" stroke="none"/><path d="M20,29.5 Q24,26.4 28,29.5 L28,33.3 Q24,30.2 20,33.3 Z" fill="currentColor" stroke="none"/><rect x="13" y="40.2" width="22" height="2.7" rx="1.35" fill="var(--icon-accent, currentColor)" stroke="none"/></svg>
