<svg xmlns="http://www.w3.org/2000/svg" viewBox="0 0 48 48" fill="none" stroke="currentColor" stroke-width="2.5" stroke-linecap="round" stroke-linejoin="round" role="img" aria-label="Saddle: ANTI: saddle mass"><path d="M5.2,16.8 C9.5,14.4 14,14.4 18,15.9 C25,18.4 33,19.4 39.8,19.4 C43.4,19.4 44.6,21.4 42.6,23.2 C39.8,25.6 33,26.6 26,26.3 C17,26 6.8,24.2 4.6,20.8 C3.6,19.2 4,17.6 5.2,16.8 Z M9,18.4 C13,16.9 16,17.1 19.5,18.3 C24,19.9 30,20.8 35,20.9 L35,22.2 C29,22.3 22,21.5 16,19.9 C13.4,19.2 10.8,18.9 9,19.3 Z" fill="currentColor" fill-rule="evenodd" stroke="none"/><path d="M12,26.8 C12,31 15,33 19,33 L27,33 C31,33 33.5,31 33.5,27.2 L30.7,27.2 C30.7,29.6 29,30.3 27,30.3 L19,30.3 C17,30.3 14.8,29.6 14.8,26.8 Z" fill="var(--icon-accent, currentColor)" stroke="none"/></svg>
