<svg xmlns="http://www.w3.org/2000/svg" viewBox="0 0 48 48" fill="none" stroke="currentColor" stroke-width="2.5" stroke-linecap="round" stroke-linejoin="round" role="img" aria-label="Rear Shock: ANTI: shock mass"><path d="M21.6,6 a3.4,3.4 0 1 0 6.8,0 a3.4,3.4 0 1 0 -6.8,0 M23.5,6 a1.5,1.5 0 1 0 3,0 a1.5,1.5 0 1 0 -3,0" fill="currentColor" fill-rule="evenodd" stroke="none"/><rect x="19.6" y="10.6" width="10.8" height="15.6" rx="3.4" fill="currentColor" stroke="none"/><rect x="12.4" y="10.9" width="6" height="10.4" rx="3" fill="var(--icon-accent, currentColor)" stroke="none"/><rect x="23.5" y="27.4" width="3" height="9.4" rx="1.5" fill="currentColor" stroke="none"/><path d="M21.6,40.4 a3.4,3.4 0 1 0 6.8,0 a3.4,3.4 0 1 0 -6.8,0 M23.5,40.4 a1.5,1.5 0 1 0 3,0 a1.5,1.5 0 1 0 -3,0" fill="currentColor" fill-rule="evenodd" stroke="none"/></svg>
