<svg xmlns="http://www.w3.org/2000/svg" viewBox="0 0 48 48" fill="none" stroke="currentColor" stroke-width="2.5" stroke-linecap="round" stroke-linejoin="round" role="img" aria-label="Tires: Tread crescent"><path d="M4,42 A38,38 0 0 1 42,4"/><path d="M14.8,42 A27.2,27.2 0 0 1 42,14.8"/><path d="M4,42 L14.8,42"/><path d="M42,4 L42,14.8"/><rect x="5.96" y="35.91" width="3.8" height="3.8" rx="0.9" transform="rotate(277 7.86 37.81)" stroke="var(--icon-accent, currentColor)"/><rect x="10.01" y="23.42" width="3.8" height="3.8" rx="0.9" transform="rotate(299 11.91 25.32)" stroke="var(--icon-accent, currentColor)"/><rect x="18.45" y="13.37" width="3.8" height="3.8" rx="0.9" transform="rotate(321 20.35 15.27)" stroke="var(--icon-accent, currentColor)"/><rect x="30.04" y="7.2" width="3.8" height="3.8" rx="0.9" transform="rotate(343 31.94 9.1)" stroke="var(--icon-accent, currentColor)"/><rect class="fd" x="12.25" y="31.25" width="3.2" height="3.2" rx="0.8" transform="rotate(288 13.85 32.85)"/><rect class="fd" x="17.73" y="21.37" width="3.2" height="3.2" rx="0.8" transform="rotate(310 19.33 22.97)"/><rect class="fd" x="26.5" y="14.26" width="3.2" height="3.2" rx="0.8" transform="rotate(332 28.1 15.86)"/></svg>
