<svg xmlns="http://www.w3.org/2000/svg" viewBox="0 0 48 48" fill="none" stroke="currentColor" stroke-width="2.5" stroke-linecap="round" stroke-linejoin="round" role="img" aria-label="Tires: ANTI: tire donut"><path d="M9.2,24 a14.8,14.8 0 1 0 29.6,0 a14.8,14.8 0 1 0 -29.6,0 M14.8,24 a9.2,9.2 0 1 0 18.4,0 a9.2,9.2 0 1 0 -18.4,0" fill="currentColor" fill-rule="evenodd" stroke="none"/><rect x="28.66" y="5.92" width="4" height="4" rx="1" transform="rotate(22.5 30.66 7.92)" fill="var(--icon-accent, currentColor)" stroke="none"/><rect x="38.08" y="15.34" width="4" height="4" rx="1" transform="rotate(67.5 40.08 17.34)" fill="var(--icon-accent, currentColor)" stroke="none"/><rect x="38.08" y="28.66" width="4" height="4" rx="1" transform="rotate(112.5 40.08 30.66)" fill="var(--icon-accent, currentColor)" stroke="none"/><rect x="28.66" y="38.08" width="4" height="4" rx="1" transform="rotate(157.5 30.66 40.08)" fill="var(--icon-accent, currentColor)" stroke="none"/><rect x="15.34" y="38.08" width="4" height="4" rx="1" transform="rotate(202.5 17.34 40.08)" fill="var(--icon-accent, currentColor)" stroke="none"/><rect x="5.92" y="28.66" width="4" height="4" rx="1" transform="rotate(247.5 7.92 30.66)" fill="var(--icon-accent, currentColor)" stroke="none"/><rect x="5.92" y="15.34" width="4" height="4" rx="1" transform="rotate(292.5 7.92 17.34)" fill="var(--icon-accent, currentColor)" stroke="none"/><rect x="15.34" y="5.92" width="4" height="4" rx="1" transform="rotate(337.5 17.34 7.92)" fill="var(--icon-accent, currentColor)" stroke="none"/></svg>
