<svg xmlns="http://www.w3.org/2000/svg" viewBox="0 0 48 48" fill="none" stroke="currentColor" stroke-width="2.5" stroke-linecap="round" stroke-linejoin="round" role="img" aria-label="Tires: Knobby, face on"><circle cx="24" cy="24" r="15.2"/><circle cx="24" cy="24" r="9.6"/><path stroke="var(--icon-accent, currentColor)" d="M27.51,8.8 L28.14,6.07"/><path stroke="var(--icon-accent, currentColor)" d="M33.76,11.83 L35.51,9.64"/><path stroke="var(--icon-accent, currentColor)" d="M38.07,17.27 L40.6,16.06"/><path stroke="var(--icon-accent, currentColor)" d="M39.6,24.04 L42.4,24.05"/><path stroke="var(--icon-accent, currentColor)" d="M38.04,30.8 L40.56,32.02"/><path stroke="var(--icon-accent, currentColor)" d="M33.7,36.22 L35.44,38.41"/><path stroke="var(--icon-accent, currentColor)" d="M27.43,39.22 L28.05,41.95"/><path stroke="var(--icon-accent, currentColor)" d="M20.49,39.2 L19.86,41.93"/><path stroke="var(--icon-accent, currentColor)" d="M14.24,36.17 L12.49,38.36"/><path stroke="var(--icon-accent, currentColor)" d="M9.93,30.73 L7.4,31.94"/><path stroke="var(--icon-accent, currentColor)" d="M8.4,23.96 L5.6,23.95"/><path stroke="var(--icon-accent, currentColor)" d="M9.96,17.2 L7.44,15.98"/><path stroke="var(--icon-accent, currentColor)" d="M14.3,11.78 L12.56,9.59"/><path stroke="var(--icon-accent, currentColor)" d="M20.57,8.78 L19.95,6.05"/><circle class="fd" cx="24" cy="11.6" r="1" fill="currentColor" stroke="none"/><circle class="fd" cx="32.77" cy="15.23" r="1" fill="currentColor" stroke="none"/><circle class="fd" cx="36.4" cy="24" r="1" fill="currentColor" stroke="none"/><circle class="fd" cx="32.77" cy="32.77" r="1" fill="currentColor" stroke="none"/><circle class="fd" cx="24" cy="36.4" r="1" fill="currentColor" stroke="none"/><circle class="fd" cx="15.23" cy="32.77" r="1" fill="currentColor" stroke="none"/><circle class="fd" cx="11.6" cy="24" r="1" fill="currentColor" stroke="none"/><circle class="fd" cx="15.23" cy="15.23" r="1" fill="currentColor" stroke="none"/></svg>
