<svg xmlns="http://www.w3.org/2000/svg" viewBox="0 0 48 48" fill="none" stroke="currentColor" stroke-width="2.5" stroke-linecap="round" stroke-linejoin="round" role="img" aria-label="Wheels: ANTI: wheel disc"><path d="M7.4,24 a16.6,16.6 0 1 0 33.2,0 a16.6,16.6 0 1 0 -33.2,0 M11.2,24 a12.8,12.8 0 1 0 25.6,0 a12.8,12.8 0 1 0 -25.6,0" fill="currentColor" fill-rule="evenodd" stroke="none"/><rect x="21.85" y="14.04" width="9.8" height="3" rx="1.5" transform="rotate(-71.99 26.75 15.54)" fill="currentColor" stroke="none"/><rect x="28" y="22.5" width="9.8" height="3" rx="1.5" transform="rotate(0 32.9 24)" fill="currentColor" stroke="none"/><rect x="21.85" y="30.96" width="9.8" height="3" rx="1.5" transform="rotate(71.99 26.75 32.46)" fill="currentColor" stroke="none"/><rect x="11.9" y="27.73" width="9.8" height="3" rx="1.5" transform="rotate(143.98 16.8 29.23)" fill="currentColor" stroke="none"/><rect x="11.9" y="17.27" width="9.8" height="3" rx="1.5" transform="rotate(-143.98 16.8 18.77)" fill="currentColor" stroke="none"/><circle cx="24" cy="24" r="4.4" fill="var(--icon-accent, currentColor)" stroke="none"/></svg>
