<svg xmlns="http://www.w3.org/2000/svg" viewBox="0 0 48 48" fill="none" stroke="currentColor" stroke-width="2.5" stroke-linecap="round" stroke-linejoin="round" role="img" aria-label="All parts: Parts grid"><circle cx="13" cy="13" r="7"/><path class="fd" d="M13,11.2 L13,6"/><path class="fd" d="M14.56,12.1 L19.06,9.5"/><path class="fd" d="M14.56,13.9 L19.06,16.5"/><path class="fd" d="M13,14.8 L13,20"/><path class="fd" d="M11.44,13.9 L6.94,16.5"/><path class="fd" d="M11.44,12.1 L6.94,9.5"/><circle class="fd" cx="13" cy="13" r="1.2" fill="currentColor" stroke="none"/><path d="M29,19 L35,8.5 L41,19 Z"/><path d="M9,27.5 Q13,25 17,27.5"/><path d="M9,27.5 L9,40"/><path d="M17,27.5 L17,40"/><circle cx="35" cy="34" r="5.5"/><path class="fd" d="M35,28.3 L35,26.4"/><path class="fd" d="M39.03,29.97 L40.37,28.63"/><path class="fd" d="M40.7,34 L42.6,34"/><path class="fd" d="M39.03,38.03 L40.37,39.37"/><path class="fd" d="M35,39.7 L35,41.6"/><path class="fd" d="M30.97,38.03 L29.63,39.37"/><path class="fd" d="M29.3,34 L27.4,34"/><path class="fd" d="M30.97,29.97 L29.63,28.63"/><circle class="fd" cx="35" cy="34" r="1.2" fill="currentColor" stroke="none"/></svg>
