<svg xmlns="http://www.w3.org/2000/svg" viewBox="0 0 48 48" fill="none" stroke="currentColor" stroke-width="2.5" stroke-linecap="round" stroke-linejoin="round" role="img" aria-label="Drivetrain: Cassette + derailleur"><circle cx="16" cy="14" r="10.5"/><path class="fd" d="M16,3.5 L16,1.7"/><path class="fd" d="M21.25,4.91 L22.15,3.35"/><path class="fd" d="M25.09,8.75 L26.65,7.85"/><path class="fd" d="M26.5,14 L28.3,14"/><path class="fd" d="M25.09,19.25 L26.65,20.15"/><path class="fd" d="M21.25,23.09 L22.15,24.65"/><path class="fd" d="M16,24.5 L16,26.3"/><path class="fd" d="M10.75,23.09 L9.85,24.65"/><path class="fd" d="M6.91,19.25 L5.35,20.15"/><path class="fd" d="M5.5,14 L3.7,14"/><path class="fd" d="M6.91,8.75 L5.35,7.85"/><path class="fd" d="M10.75,4.91 L9.85,3.35"/><circle cx="16" cy="14" r="6.5"/><circle class="fd" cx="16" cy="14" r="3"/><path d="M21,23.5 L25.5,26.5"/><circle cx="27.5" cy="29.5" r="2.5"/><circle cx="34.5" cy="39.5" r="2.5"/><path d="M24.4,32.1 L31.4,42.1"/><path d="M30.6,26.9 L37.6,36.9"/><circle class="fd" cx="27.5" cy="29.5" r="0.9" fill="currentColor" stroke="none"/><circle class="fd" cx="34.5" cy="39.5" r="0.9" fill="currentColor" stroke="none"/></svg>
