<svg xmlns="http://www.w3.org/2000/svg" viewBox="0 0 48 48" fill="none" stroke="currentColor" stroke-width="2.5" stroke-linecap="round" stroke-linejoin="round" role="img" aria-label="Drivetrain: Crank + chainring"><circle cx="19" cy="28" r="12"/><path class="fd" d="M19,15.6 L19,13.4"/><path class="fd" d="M23.75,16.54 L24.59,14.51"/><path class="fd" d="M27.77,19.23 L29.32,17.68"/><path class="fd" d="M30.46,23.25 L32.49,22.41"/><path class="fd" d="M31.4,28 L33.6,28"/><path class="fd" d="M30.46,32.75 L32.49,33.59"/><path class="fd" d="M27.77,36.77 L29.32,38.32"/><path class="fd" d="M23.75,39.46 L24.59,41.49"/><path class="fd" d="M19,40.4 L19,42.6"/><path class="fd" d="M14.25,39.46 L13.41,41.49"/><path class="fd" d="M10.23,36.77 L8.68,38.32"/><path class="fd" d="M7.54,32.75 L5.51,33.59"/><path class="fd" d="M6.6,28 L4.4,28"/><path class="fd" d="M7.54,23.25 L5.51,22.41"/><path class="fd" d="M10.23,19.23 L8.68,17.68"/><path class="fd" d="M14.25,16.54 L13.41,14.51"/><circle class="fd" cx="19" cy="28" r="5"/><rect x="16" y="17" width="24" height="5.2" rx="2.6" transform="rotate(-41 28 19.6)"/><circle cx="19" cy="28" r="1.5" fill="currentColor" stroke="none"/><circle class="fd" cx="37.5" cy="11.5" r="1.5" fill="currentColor" stroke="none"/></svg>
