<svg xmlns="http://www.w3.org/2000/svg" viewBox="0 0 48 48" fill="none" stroke="currentColor" stroke-width="2.5" stroke-linecap="round" stroke-linejoin="round" role="img" aria-label="Tires: Knobby tire, face on"><circle cx="24" cy="24" r="15"/><circle cx="24" cy="24" r="9.5"/><path d="M27.99,9.12 L28.81,6.03"/><path d="M34.89,13.11 L37.15,10.85"/><path d="M38.88,20.01 L41.97,19.19"/><path d="M38.88,27.99 L41.97,28.81"/><path d="M34.89,34.89 L37.15,37.15"/><path d="M27.99,38.88 L28.81,41.97"/><path d="M20.01,38.88 L19.19,41.97"/><path d="M13.11,34.89 L10.85,37.15"/><path d="M9.12,27.99 L6.03,28.81"/><path d="M9.12,20.01 L6.03,19.19"/><path d="M13.11,13.11 L10.85,10.85"/><path d="M20.01,9.12 L19.19,6.03"/><circle class="fd" cx="24" cy="11.8" r="1" fill="currentColor" stroke="none"/><circle class="fd" cx="32.63" cy="15.37" r="1" fill="currentColor" stroke="none"/><circle class="fd" cx="36.2" cy="24" r="1" fill="currentColor" stroke="none"/><circle class="fd" cx="32.63" cy="32.63" r="1" fill="currentColor" stroke="none"/><circle class="fd" cx="24" cy="36.2" r="1" fill="currentColor" stroke="none"/><circle class="fd" cx="15.37" cy="32.63" r="1" fill="currentColor" stroke="none"/><circle class="fd" cx="11.8" cy="24" r="1" fill="currentColor" stroke="none"/><circle class="fd" cx="15.37" cy="15.37" r="1" fill="currentColor" stroke="none"/></svg>
