<svg xmlns="http://www.w3.org/2000/svg" viewBox="0 0 48 48" fill="none" stroke="currentColor" stroke-width="2.5" stroke-linecap="round" stroke-linejoin="round" role="img" aria-label="Wheels: Wheel, race build"><circle cx="24" cy="24" r="16.5"/><circle cx="24" cy="24" r="13.2"/><path class="fd" d="M21.5,21.41 L24,10.8"/><path class="fd" d="M27.46,23.01 L30.6,12.57"/><path class="fd" d="M24.99,20.54 L35.43,17.4"/><path class="fd" d="M26.59,26.5 L37.2,24"/><path class="fd" d="M27.49,23.13 L35.43,30.6"/><path class="fd" d="M23.13,27.49 L30.6,35.43"/><path class="fd" d="M26.5,26.59 L24,37.2"/><path class="fd" d="M20.54,24.99 L17.4,35.43"/><path class="fd" d="M23.01,27.46 L12.57,30.6"/><path class="fd" d="M21.41,21.5 L10.8,24"/><path class="fd" d="M20.51,24.87 L12.57,17.4"/><path class="fd" d="M24.87,20.51 L17.4,12.57"/><circle cx="24" cy="24" r="3.6"/><path class="fd" d="M19.2,24 L28.8,24"/></svg>
